<svg xmlns="http://www.w3.org/2000/svg" width="1024" height="128" viewBox="0 0 1024 128">
  <rect width="1024" height="128" fill="#1b1f28"/>
  <g fill="none" stroke="#303746" stroke-width="1">
    <path d="M128 0v128M256 0v128M384 0v128M512 0v128M640 0v128M768 0v128M896 0v128"/>
  </g>
  <defs>
    <g id="knight">
      <ellipse cx="64" cy="113" rx="28" ry="5" fill="#08090d" opacity=".55"/>
      <path d="M48 42h32l8 45H40z" fill="#6f7d8f"/>
      <path d="M52 30h24l8 15H44z" fill="#9aa8bb"/>
      <rect x="55" y="18" width="18" height="16" rx="4" fill="#d8bf8a"/>
      <path d="M50 20h28l-4-8H54z" fill="#40516a"/>
      <path d="M42 48l-18 19 8 8 18-16z" fill="#8fa3bd"/>
      <path d="M86 48l18 19-8 8-18-16z" fill="#8fa3bd"/>
      <path d="M52 86l-10 24h13l9-20z" fill="#59677a"/>
      <path d="M76 86l10 24H73l-9-20z" fill="#59677a"/>
      <path d="M82 40l30 11-5 9-28-6z" fill="#4fb7ff"/>
      <path d="M46 40l-30 11 5 9 28-6z" fill="#ffd166"/>
    </g>
  </defs>
  <use href="#knight" x="0" y="0"/>
  <use href="#knight" x="128" y="-1"/>
  <use href="#knight" x="256" y="-2"/>
  <use href="#knight" x="384" y="-1"/>
  <use href="#knight" x="512" y="0"/>
  <use href="#knight" x="640" y="-1"/>
  <use href="#knight" x="768" y="-2"/>
  <use href="#knight" x="896" y="-1"/>
</svg>
